<svg width="465" height="70" viewBox="0 0 465 70" fill="none" xmlns="http://www.w3.org/2000/svg">
<circle cx="35" cy="35" r="34.5" fill="white" stroke="black"/>
<path d="M92.304 53L91.92 50.952C92.9013 50.4827 93.9253 50.0773 94.992 49.736C96.1013 49.352 97.1893 49.0107 98.256 48.712L98.32 53H92.304ZM122.128 53L117.328 50.44L119.504 41.288L122.896 41.544C122.939 42.6533 122.917 43.9333 122.832 45.384C122.789 46.8347 122.704 48.2427 122.576 49.608C122.448 50.9307 122.299 52.0613 122.128 53ZM98.96 14.856L92.816 14.472L92.88 11.4H98.832L98.96 14.856ZM118.032 21.96L117.008 14.28L122.128 11.4C122.213 12.0827 122.235 13.0213 122.192 14.216C122.192 15.368 122.128 16.6267 122 17.992C121.915 19.3147 121.744 20.6373 121.488 21.96H118.032ZM97.36 53V11.4H103.312V53H97.36ZM117.968 34.824L102.608 34.184V30.408L117.968 29.256V34.824ZM121.04 16.328L101.776 14.984L96.976 11.4H122.128L121.04 16.328ZM96.976 53L101.776 48.904L121.04 48.072L122.128 53H96.976ZM131.966 53V8.328L135.102 5.96L137.662 8.2V53H131.966ZM127.422 53L127.102 50.888C127.87 50.504 128.894 50.0987 130.174 49.672C131.496 49.2453 132.563 48.9253 133.374 48.712L132.478 53H127.422ZM135.934 53L135.998 48.712C137.107 48.7973 138.238 48.9467 139.39 49.16C140.584 49.3307 141.544 49.5867 142.27 49.928L141.885 53H135.934ZM127.166 10.952L126.398 7.944C127.678 7.34666 129.107 6.87733 130.686 6.536C132.307 6.19467 133.779 6.00267 135.102 5.96L135.934 7.56L133.118 10.504L127.166 10.952ZM163.742 53L163.358 50.952C164.339 50.4827 165.363 50.0773 166.43 49.736C167.539 49.352 168.627 49.0107 169.694 48.712L169.758 53H163.742ZM193.566 53L188.766 50.44L190.942 41.288L194.333 41.544C194.376 42.6533 194.355 43.9333 194.27 45.384C194.227 46.8347 194.142 48.2427 194.014 49.608C193.886 50.9307 193.736 52.0613 193.566 53ZM170.398 14.856L164.254 14.472L164.318 11.4H170.27L170.398 14.856ZM189.47 21.96L188.446 14.28L193.566 11.4C193.651 12.0827 193.672 13.0213 193.63 14.216C193.63 15.368 193.566 16.6267 193.438 17.992C193.352 19.3147 193.182 20.6373 192.926 21.96H189.47ZM168.798 53V11.4H174.75V53H168.798ZM189.406 34.824L174.046 34.184V30.408L189.406 29.256V34.824ZM192.478 16.328L173.214 14.984L168.414 11.4H193.566L192.478 16.328ZM168.414 53L173.214 48.904L192.478 48.072L193.566 53H168.414ZM222.426 53L200.73 24.904L206.042 23.048L228.698 53H222.426ZM197.594 53L199.002 51.208L210.714 36.744L213.338 39.688L203.546 53H197.594ZM215.514 38.6L212.89 36.104L222.426 23.048H226.074L225.306 26.248L215.514 38.6ZM205.466 26.632L198.234 26.184L198.298 23.048H207.322L205.466 26.632ZM204.826 27.592L205.722 23.048H210.778L211.162 25.352C210.138 25.7787 209.029 26.2053 207.834 26.632C206.639 27.0587 205.637 27.3787 204.826 27.592ZM224.346 26.632L216.602 26.184L216.666 23.048H225.562L224.346 26.632ZM222.362 27.592L223.258 23.048H228.314L228.698 25.352C227.674 25.7787 226.629 26.184 225.562 26.568C224.538 26.9093 223.471 27.2507 222.362 27.592ZM196.89 53L196.57 50.888C197.338 50.504 198.362 50.0987 199.642 49.672C200.965 49.2453 202.031 48.9253 202.842 48.712L201.946 53H196.89ZM203.29 53L203.994 48.712C205.103 48.7973 206.234 48.9467 207.386 49.16C208.581 49.3307 209.541 49.5867 210.266 49.928L209.882 53H203.29ZM216.41 53L216.09 50.888C216.858 50.504 217.882 50.0987 219.162 49.672C220.485 49.2453 221.551 48.9253 222.362 48.712L224.666 53H216.41ZM222.874 53L223.578 48.712C224.687 48.7973 225.818 48.9467 226.97 49.16C228.165 49.3307 229.125 49.5867 229.85 49.928L229.466 53H222.874ZM247.901 54.216C246.407 54.216 244.871 54.0453 243.293 53.704C241.757 53.3627 240.157 52.8507 238.493 52.168L241.373 46.472C241.927 47.0693 242.738 47.688 243.805 48.328C244.871 48.968 246.173 49.4587 247.708 49.8C249.287 50.0987 251.037 50.0987 252.957 49.8C254.706 48.7333 256.05 47.1333 256.989 45C257.927 42.824 258.397 40.584 258.397 38.28C258.397 36.36 258.055 34.568 257.373 32.904C256.733 31.1973 255.815 29.832 254.621 28.808C253.469 27.7413 252.103 27.208 250.525 27.208C248.989 27.208 247.389 27.6773 245.725 28.616C244.103 29.512 242.482 30.536 240.861 31.688L240.285 28.68L250.205 22.216C252.338 21.7467 254.258 21.832 255.965 22.472C257.714 23.112 259.207 24.1573 260.445 25.608C261.725 27.016 262.706 28.7013 263.389 30.664C264.071 32.6267 264.413 34.7387 264.413 37C264.413 39.4747 264.007 41.7573 263.197 43.848C262.386 45.9387 261.234 47.7733 259.741 49.352C258.29 50.888 256.562 52.0827 254.557 52.936C252.551 53.7893 250.333 54.216 247.901 54.216ZM233.373 66.056L233.053 63.944C233.821 63.56 234.845 63.1547 236.125 62.728C237.447 62.3013 238.514 61.9813 239.325 61.768L238.429 66.056H233.373ZM241.885 66.056L241.949 61.768C243.058 61.8533 244.189 61.9813 245.341 62.152C246.535 62.3653 247.495 62.6427 248.221 62.984L247.837 66.056H241.885ZM237.277 66.056V24.392L240.477 22.024L242.973 24.264V66.056H237.277ZM232.541 27.016L231.773 24.008C233.053 23.4107 234.482 22.9413 236.061 22.6C237.682 22.2587 239.154 22.0667 240.477 22.024L241.309 23.624L238.493 26.568L232.541 27.016ZM271.591 53V8.328L274.727 5.96L277.287 8.2V53H271.591ZM267.047 53L266.727 50.888C267.495 50.504 268.519 50.0987 269.799 49.672C271.121 49.2453 272.188 48.9253 272.999 48.712L272.103 53H267.047ZM275.559 53L275.623 48.712C276.732 48.7973 277.863 48.9467 279.015 49.16C280.209 49.3307 281.169 49.5867 281.895 49.928L281.51 53H275.559ZM266.791 10.952L266.023 7.944C267.303 7.34666 268.732 6.87733 270.311 6.536C271.932 6.19467 273.404 6.00267 274.727 5.96L275.559 7.56L272.743 10.504L266.791 10.952ZM299.06 54.28C296.372 54.28 293.918 53.6187 291.7 52.296C289.524 50.9307 287.774 49.032 286.452 46.6C285.129 44.1253 284.468 41.224 284.468 37.896C284.468 34.4827 285.129 31.5813 286.452 29.192C287.817 26.76 289.588 24.9253 291.764 23.688C293.982 22.408 296.372 21.768 298.932 21.768C301.577 21.768 303.945 22.4293 306.036 23.752C308.169 25.032 309.854 26.9093 311.092 29.384C312.372 31.816 313.012 34.7813 313.012 38.28C313.012 41.8213 312.372 44.7867 311.092 47.176C309.812 49.5227 308.105 51.2933 305.972 52.488C303.881 53.6827 301.577 54.28 299.06 54.28ZM299.764 50.12C300.745 50.12 301.769 49.9707 302.836 49.672C304.03 48.8613 304.926 47.8373 305.524 46.6C306.121 45.3627 306.505 44.0613 306.676 42.696C306.889 41.3307 306.996 40.0933 306.996 38.984C306.996 36.6373 306.697 34.4613 306.1 32.456C305.545 30.4507 304.628 28.8293 303.348 27.592C302.11 26.3547 300.468 25.736 298.42 25.736C297.438 25.736 296.521 25.8853 295.668 26.184C294.814 26.44 294.11 26.76 293.556 27.144C292.446 28.4667 291.657 30.0453 291.188 31.88C290.761 33.672 290.548 35.4427 290.548 37.192C290.548 39.4107 290.868 41.5227 291.508 43.528C292.148 45.4907 293.15 47.0907 294.516 48.328C295.881 49.5227 297.63 50.12 299.764 50.12ZM321.153 53V24.392L324.289 22.024L326.849 24.264V53H321.153ZM324.993 37.128L323.713 33.416L333.569 22.92C335.02 22.3227 336.342 22.088 337.537 22.216C338.774 22.344 339.905 22.728 340.929 23.368C340.972 24.1787 340.972 25.032 340.929 25.928C340.886 26.7813 340.822 27.656 340.737 28.552C340.652 29.448 340.524 30.344 340.353 31.24C340.182 32.0933 339.99 32.9253 339.777 33.736H336.321L335.617 26.696C334.55 27.2933 333.356 28.104 332.033 29.128C330.753 30.152 329.473 31.3467 328.193 32.712C326.956 34.0347 325.889 35.5067 324.993 37.128ZM316.353 27.016L315.585 24.008C316.865 23.4107 318.294 22.9413 319.873 22.6C321.494 22.2587 322.966 22.0667 324.289 22.024L325.121 23.624L322.305 26.568L316.353 27.016ZM316.801 53L316.481 50.888C317.249 50.504 318.273 50.0987 319.553 49.672C320.876 49.2453 321.942 48.9253 322.753 48.712L321.857 53H316.801ZM325.825 53L325.889 48.712C326.614 48.712 327.468 48.776 328.449 48.904C329.473 49.032 330.433 49.1813 331.329 49.352C332.268 49.5227 332.972 49.7147 333.441 49.928L333.057 53H325.825ZM365.712 53.96C365.242 53.9173 364.666 53.6187 363.984 53.064C363.301 52.552 362.661 51.8907 362.064 51.08C361.466 50.2693 361.061 49.4587 360.848 48.648V47.752V32.584C360.848 30.5787 360.613 29.0853 360.144 28.104C359.674 27.08 358.864 26.2907 357.712 25.736C356.517 25.7787 355.216 25.9067 353.808 26.12C352.442 26.3333 351.333 26.568 350.48 26.824L349.968 33.48L346.576 33.736C346.021 32.6693 345.594 31.4533 345.296 30.088C344.997 28.7227 344.805 27.3787 344.72 26.056C345.701 25.5013 346.853 24.968 348.176 24.456C349.541 23.9013 350.928 23.4107 352.336 22.984C353.744 22.5147 355.045 22.152 356.24 21.896C357.434 21.5973 358.352 21.448 358.992 21.448C359.93 21.448 360.848 21.704 361.744 22.216C362.682 22.6853 363.514 23.2827 364.24 24.008C365.008 24.6907 365.541 25.3307 365.84 25.928C366.138 26.4827 366.33 27.1653 366.416 27.976C366.544 28.7867 366.608 30.3227 366.608 32.584V47.496C366.608 47.9653 366.757 48.3067 367.056 48.52C367.397 48.6907 367.802 48.776 368.272 48.776C368.741 48.776 369.232 48.712 369.744 48.584C370.298 48.456 370.789 48.328 371.216 48.2L372.176 51.016L365.712 53.96ZM353.936 53.896C351.589 54.152 349.669 53.896 348.176 53.128C346.725 52.36 345.637 51.3573 344.911 50.12C344.229 48.84 343.888 47.5813 343.888 46.344C343.888 45.1067 344.229 43.8907 344.911 42.696C345.637 41.4587 346.789 40.392 348.368 39.496L362.448 39.112L362.192 42.568L361.168 42.504C359.973 42.376 358.714 42.3333 357.392 42.376C356.112 42.376 354.896 42.504 353.744 42.76C352.634 42.9733 351.717 43.3787 350.992 43.976C350.266 44.5307 349.904 45.32 349.904 46.344C349.904 46.8987 350.032 47.4533 350.288 48.008C350.586 48.52 351.013 48.9467 351.568 49.288C352.805 49.3307 354.085 49.1813 355.408 48.84C356.73 48.4987 357.946 48.0933 359.056 47.624C360.208 47.1547 361.104 46.7707 361.744 46.472V49.16L353.936 53.896ZM389.061 53.96C386.202 54.0027 383.664 53.32 381.445 51.912C379.226 50.4613 377.498 48.52 376.261 46.088C375.024 43.656 374.405 40.9893 374.405 38.088C374.405 35.6133 374.832 33.3733 375.685 31.368C376.581 29.32 377.776 27.5707 379.269 26.12C380.805 24.6693 382.533 23.56 384.453 22.792C386.416 22.024 388.442 21.64 390.533 21.64C393.008 21.64 395.141 22.1093 396.933 23.048C398.768 23.9867 400.026 25.0747 400.709 26.312L397.957 30.984C397.274 29.8747 396.25 28.8933 394.885 28.04C393.562 27.144 392.026 26.504 390.277 26.12C388.57 25.6933 386.8 25.6933 384.965 26.12C383.514 27.4427 382.384 29.1067 381.573 31.112C380.805 33.1173 380.421 35.208 380.421 37.384C380.421 39.5173 380.762 41.4373 381.445 43.144C382.17 44.8507 383.194 46.216 384.517 47.24C385.84 48.2213 387.376 48.712 389.125 48.712C390.49 48.712 392.005 48.3493 393.669 47.624C395.376 46.8987 397.21 45.7467 399.173 44.168L398.981 47.304L389.061 53.96ZM400.645 53.96C400.176 53.9173 399.6 53.6187 398.917 53.064C398.234 52.552 397.594 51.8907 396.997 51.08C396.442 50.2693 396.058 49.4587 395.845 48.648V47.752V8.328L398.981 5.96L401.541 8.264V47.496C401.541 47.9653 401.69 48.3067 401.989 48.52C402.33 48.6907 402.736 48.776 403.205 48.776C403.674 48.776 404.165 48.712 404.677 48.584C405.232 48.456 405.722 48.328 406.149 48.2L407.109 51.016L400.645 53.96ZM391.045 10.952L390.277 7.944C391.557 7.34666 392.986 6.87733 394.565 6.536C396.186 6.19467 397.658 6.00267 398.981 5.96L399.813 7.56L396.997 10.504L391.045 10.952ZM422.685 54.28C419.997 54.28 417.543 53.6187 415.325 52.296C413.149 50.9307 411.399 49.032 410.077 46.6C408.754 44.1253 408.093 41.224 408.093 37.896C408.093 34.4827 408.754 31.5813 410.077 29.192C411.442 26.76 413.213 24.9253 415.389 23.688C417.607 22.408 419.997 21.768 422.557 21.768C425.202 21.768 427.57 22.4293 429.661 23.752C431.794 25.032 433.479 26.9093 434.717 29.384C435.997 31.816 436.637 34.7813 436.637 38.28C436.637 41.8213 435.997 44.7867 434.717 47.176C433.437 49.5227 431.73 51.2933 429.597 52.488C427.506 53.6827 425.202 54.28 422.685 54.28ZM423.389 50.12C424.37 50.12 425.394 49.9707 426.461 49.672C427.655 48.8613 428.551 47.8373 429.149 46.6C429.746 45.3627 430.13 44.0613 430.301 42.696C430.514 41.3307 430.621 40.0933 430.621 38.984C430.621 36.6373 430.322 34.4613 429.725 32.456C429.17 30.4507 428.253 28.8293 426.973 27.592C425.735 26.3547 424.093 25.736 422.045 25.736C421.063 25.736 420.146 25.8853 419.293 26.184C418.439 26.44 417.735 26.76 417.181 27.144C416.071 28.4667 415.282 30.0453 414.812 31.88C414.386 33.672 414.173 35.4427 414.173 37.192C414.173 39.4107 414.493 41.5227 415.133 43.528C415.773 45.4907 416.775 47.0907 418.141 48.328C419.506 49.5227 421.255 50.12 423.389 50.12ZM444.778 53V24.392L447.914 22.024L450.474 24.264V53H444.778ZM448.618 37.128L447.338 33.416L457.194 22.92C458.645 22.3227 459.967 22.088 461.162 22.216C462.399 22.344 463.53 22.728 464.554 23.368C464.597 24.1787 464.597 25.032 464.554 25.928C464.511 26.7813 464.447 27.656 464.362 28.552C464.277 29.448 464.149 30.344 463.978 31.24C463.807 32.0933 463.615 32.9253 463.402 33.736H459.946L459.242 26.696C458.175 27.2933 456.981 28.104 455.658 29.128C454.378 30.152 453.098 31.3467 451.818 32.712C450.581 34.0347 449.514 35.5067 448.618 37.128ZM439.978 27.016L439.21 24.008C440.49 23.4107 441.919 22.9413 443.498 22.6C445.119 22.2587 446.591 22.0667 447.914 22.024L448.746 23.624L445.93 26.568L439.978 27.016ZM440.426 53L440.106 50.888C440.874 50.504 441.898 50.0987 443.178 49.672C444.501 49.2453 445.567 48.9253 446.378 48.712L445.482 53H440.426ZM449.45 53L449.514 48.712C450.239 48.712 451.093 48.776 452.074 48.904C453.098 49.032 454.058 49.1813 454.954 49.352C455.893 49.5227 456.597 49.7147 457.066 49.928L456.682 53H449.45Z" fill="white"/>
<circle cx="50" cy="33" r="20" fill="#1E1E1E"/>
</svg>
